<?xml version="1.0" encoding="utf-8"?>
<!-- Generator: Adobe Illustrator 27.8.1, SVG Export Plug-In . SVG Version: 6.00 Build 0)  -->
<svg version="1.1" id="Calque_1" xmlns="http://www.w3.org/2000/svg" xmlns:xlink="http://www.w3.org/1999/xlink" x="0px" y="0px"
	 viewBox="0 0 12 12" style="enable-background:new 0 0 12 12;" xml:space="preserve">
<style type="text/css">
	.st0{fill:#F7EC59;}
</style>
<g>
	<path class="st0" d="M9.4,4.3l-3.6,3l0.4,0.5l3.6-3C9.8,4.7,9.4,4.3,9.4,4.3z"/>
	<path class="st0" d="M9.8,4.7l-3.6,3C5.9,8,5.5,7.5,5.8,7.3l3.6-3C9.7,4,10.1,4.5,9.8,4.7z"/>
	<path class="st0" d="M2.2,4.7l3.6,3l0.4-0.5l-3.6-3C2.6,4.3,2.2,4.7,2.2,4.7z"/>
	<path class="st0" d="M2.6,4.3l3.6,3C6.5,7.5,6.1,8,5.8,7.7l-3.6-3C1.9,4.5,2.3,4,2.6,4.3z"/>
</g>
</svg>
